Patient4_TMGait_0pt6_01_right_39_EMG.mot
version=1
nRows=33
nColumns=33
inDegrees=no
endheader
time	1LAddLong	2LGlutMax	3LGlutMed	4LIliopsoas	5LSemiMemb	6LBicFemLong	7LRecFem	8LVastMed	9LVastLat	10LGasMed	11LTibAnt	12lTibPost	13LPeroneusLong	14LSol	15LExtDigLong	16LFlexDigLong	17RAddLong	18RGlutMax	19RGlutMed	20RIliopsoas	21RSemiMemb	22RBicFemLong	23RRecFem	24RVastMed	25RVastLat	26RGasMed	27RTibAnt	28RTibPost	29RPeroneusLong	30RSol	31RExtDigLong	32RFlexDigLong
48.16	0.01709	-0.020142	-0.233	0.00885	0.013123	0.019684	0.15701	0.003357	-0.026398	-0.056152	0.066223	0.10742	0.042114	0.042114	0.055695	-0.020905	-0.012512	-0.054779	0.29297	-0.040436	-0.050354	0.029144	0.10178	-0.091705	0.012817	0.005341	0.32166	0.001068	-0.34393	0.047455	-0.001984	-0.004425
48.161	0.013275	-0.011444	-0.20599	-0.003204	0.007019	0.041351	0.15152	0.00946	0.011292	0.28122	-0.005035	-0.12222	0.12833	0.11765	0.13718	0.090179	0.011444	-0.040894	0.085449	-0.066223	-0.028229	0.003967	0.026093	-0.096588	0.019684	0.007019	0.050354	-0.001373	-0.19302	0.002441	-0.00351	-0.007477
48.162	0.010681	-0.005341	-0.009003	-0.004272	0.000305	0.01358	0.1384	0.009308	0.032654	0.40314	-0.13412	-0.072784	0.20004	0.25803	0.069885	0.037384	0.037994	-0.052185	0.15884	-0.027161	0.15167	0.048218	-0.062408	-0.083923	0.005951	0.011292	-0.26764	-0.001678	0.12054	-0.023041	-0.003204	-0.00351
48.163	0.020905	-0.00061	-0.11047	0.036621	0.001068	0.005493	0.13229	0.012207	0.027924	0.39169	-0.095978	-0.01358	0.27283	0.089722	0.055389	0.11276	0.096741	-0.058594	0.1152	0.049286	0.12787	0.046082	-0.11246	-0.083771	0.003967	0.014954	-0.25696	-0.002136	-0.45441	-0.018463	-0.003967	-0.005798
48.164	0.011749	0.007935	-0.057526	0.030823	-0.010071	-0.012817	0.10254	0.003662	-0.013428	0.18112	0.015717	-0.084381	0.1593	-0.035095	0.047302	0.086975	0.085602	-0.10971	0.070343	0.057678	0.080719	-0.11826	-0.066681	-0.10269	0.011292	0.013885	-0.20783	-0.005341	0.013428	-0.11581	-0.003204	-0.004425
48.165	0.003662	0.050964	-0.07309	0.022278	-0.004272	-0.007782	0.15411	0.005188	-0.1059	0.20187	0.062408	0.021973	0.029602	-0.20264	0.13473	0.091095	0.050659	-0.06424	0.061493	-0.044708	-0.050354	-0.1712	-0.045013	-0.12802	0.006714	0.005798	-0.10498	-0.003357	0.29297	-0.14557	-0.008545	-0.005798
48.166	0.004883	0.039063	-0.03418	0.00351	-0.022125	0.002136	0.1239	0.010529	-0.091858	0.085602	0.09201	0.10086	0.013428	-0.28686	0.40619	0.070953	0.029907	-0.091705	0.19089	-0.14206	-0.081635	-0.17425	-0.066833	-0.15518	-0.001526	0.000916	-0.10788	-0.01358	0.62195	-0.083771	-0.001831	-0.002594
48.167	0.003204	0.010834	-0.00885	0.011444	-0.039215	0.009918	0.083923	0.01297	-0.082245	-0.19684	-0.1532	0.13611	0.011902	-0.2594	0.31586	0.040436	-0.013275	-0.10742	0.09201	-0.055237	-0.11017	-0.039978	0.015106	-0.10727	-0.010529	-0.007935	-0.34027	-0.006409	0.58777	-0.067749	-0.001068	-0.007019
48.168	0.014343	-0.007629	0.015869	0.018311	-0.034943	0.003357	0.04364	0.007477	-0.061798	-0.19928	-0.077667	-0.20905	0.015259	-0.27954	0.01358	-0.028076	-0.033112	-0.1001	-0.070953	0.089264	-0.19928	0.076599	0.047607	-0.072632	0.007935	-0.007019	-0.32745	-0.007935	0.2475	-0.11597	-0.005341	-0.005035
48.169	0.016937	-0.024719	-0.076141	0.018463	-0.027161	-0.016937	-0.043488	0.018921	0.00061	-0.088043	0.048981	0.031281	-0.025787	-0.15976	-0.12924	-0.037079	-0.10391	-0.07843	-0.11017	0.11536	0.023804	0.010681	0.05661	-0.0383	0.029144	-0.007935	-0.29572	-0.004425	-0.21545	-0.088348	-0.002136	-0.000458
48.17	0.031128	0.032043	0.007477	0.000153	0.031891	-0.061188	0.04776	0.005188	0.031433	-0.10315	-0.038757	-0.007629	-0.020905	-0.088806	0.17761	-0.039978	-0.12283	-0.063019	-0.046387	-0.065918	0.097046	-0.001373	-0.063171	-0.010681	0.033722	-0.007935	-0.09613	-0.011444	-0.32989	-0.072784	-0.003967	0.003052
48.171	0.024872	0.11551	0.008698	0.003357	0.062714	-0.02655	0.088806	0.010376	-0.021362	-0.12314	0.047913	-0.017853	-0.035095	0.076904	-0.4364	-0.032501	-0.067444	-0.092163	0.27313	-0.23377	0.18066	-0.22461	-0.12329	-0.09491	0.015259	-0.004425	0.079651	-0.006561	-0.063171	-0.1149	-0.001678	0.008087
48.172	0.014343	0.09552	-0.05661	-0.007935	0.021515	0.009918	0.16617	-0.007782	0.007477	-0.11078	0.05661	-0.004578	-0.006561	0.13901	-0.52414	-0.023956	-0.03418	-0.057831	0.24979	-0.1857	0.096741	-0.21729	-0.28107	-0.15518	0.006256	-0.010376	0.21149	-0.010376	0.30762	-0.061188	-0.004272	0.01236
48.173	0.015411	0.095367	0.016937	-0.028534	-0.005035	0.00351	0.16342	-0.010376	0.009155	0.021057	0.015564	0.005798	0.034485	0.28122	-0.44098	-0.034637	-0.032196	-0.062103	0.042267	0.027161	0.004425	-0.12466	-0.32288	-0.21957	-0.003967	-0.002899	0.12833	-0.006866	0.082397	-0.073853	-0.00351	0.007782
48.174	0.018158	0.1149	0.051422	-0.022125	0.016174	-0.002289	0.071259	-0.000458	0.025635	0.049744	0.008545	0.005798	0.029144	0.24002	-0.48202	-0.001678	-0.045776	-0.07431	0.016479	0.39795	-0.086975	0.020142	-0.37079	-0.27252	0.00824	-0.005493	-0.002136	-0.008545	-0.30777	-0.015411	-0.004272	0.00885
48.175	0.020447	0.082397	0.013733	-0.010376	0.02182	0.010071	0.070648	-0.001526	0.008698	0.021515	0.055084	0.006104	0.010681	0.30045	-0.2298	-0.006714	-0.064545	-0.025177	0.45517	0.45181	-0.16373	0.072174	-0.38528	-0.24506	0.006561	-0.012054	0.00351	-0.008698	-0.27679	-0.010834	-0.00351	0.00473
48.176	0.020599	0.020599	0	0.007782	0.012207	-0.0177	0.11246	0.001373	-0.046997	0.039825	0.035553	0.002899	-0.10086	0.10162	-0.11108	0.023956	-0.064545	-0.046692	0.38666	0.224	-0.13596	0.20737	-0.41275	-0.21606	-0.007477	-0.006409	0.067291	-0.005341	-0.39261	-0.000916	-0.004883	0.003815
48.177	0.086823	-0.000763	-0.082397	0.00351	0.021362	-0.009003	0.12421	0.006256	0.009613	0.16556	0.003967	0.002747	-0.088043	-0.11993	-0.010834	0.074463	-0.05127	-0.10941	0.29251	0.03891	0.16281	0.28336	-0.17731	-0.21332	-0.010834	-0.008698	0.13489	-0.002899	-0.32349	-0.003967	-0.003357	0.001221
48.178	0.023499	-0.007172	-0.1532	0.014801	0.015411	-0.006409	0.086975	-0.002289	0	0.29327	-0.009308	-0.006561	0.024261	-0.04364	0.046082	0.098114	-0.022736	-0.10147	0.17258	0.017548	0.14206	0.2478	0.095215	-0.19791	0	-0.014954	0.16739	-0.002594	-0.49881	0.020142	-0.003204	0.003357
48.179	0.027771	-0.033875	-0.1915	0.020447	0.018005	-0.014954	0.081635	0.000153	-0.011139	0.42602	-0.008545	0.050354	-0.010376	-0.090027	0.11078	-0.37247	-0.019989	-0.072479	0.050201	0.032043	0.073242	0.18158	0.37384	-0.10407	-0.003662	-0.017395	0.18097	-0.009155	-0.19913	0.013733	-0.005341	0.004578
48.18	0.034027	-0.052338	-0.18173	0.032349	0.013733	-0.02533	0.11368	-0.000763	-0.00946	0.30319	-0.016632	0.10483	0.018921	-0.4216	0.16037	0.018463	-0.011902	-0.10147	-0.0354	0.024109	0.019073	0.14053	0.47806	0.002289	0.047455	-0.00824	0.084991	-0.003967	0.13809	-0.055084	-0.000153	0
48.181	0.014038	-0.035858	-0.065613	0.028687	0.013885	-0.046082	0.13382	-0.002747	-0.011292	0.22247	-0.014496	-0.20615	-0.047607	-0.56335	0.1358	0.12726	-0.010223	-0.085449	0.024109	-0.017548	0.008545	0.13214	0.37735	0.006256	0.031738	-0.015106	0.079956	-0.005798	0.12344	-0.063629	-0.001526	-0.010223
48.182	0.018768	-0.013733	0.049591	0.027466	0.00473	-0.027161	0.12619	0.012207	-0.012207	-0.49469	-0.018616	-0.05722	-0.05188	-0.35996	0.12375	0.029602	-0.000153	-0.058746	0.055084	-0.054321	0.006561	0.095673	0.15671	0.03952	0.025635	-0.018005	0.068359	0.001221	-0.25375	-0.022888	0.000763	-0.006409
48.183	0.005188	-0.032043	-0.043793	0.020447	0.001221	-0.021973	0.13397	-0.00473	-0.018158	-0.81589	0.000153	0.28351	0.85617	-0.11673	0.13687	0.037689	0.007019	-0.053864	-0.092926	-0.057831	0.01709	-0.010986	-0.12558	-0.024567	0.037537	-0.019684	0.077667	-0.003204	-0.61874	-0.040741	-0.00061	-0.001068
48.184	0.014954	-0.052185	-0.00061	0.000153	0.005493	-0.024567	0.12299	0.00412	-0.011292	-0.54901	-0.015564	-0.010681	0.76599	-0.12619	0.13886	0.021667	0.03479	-0.061188	-0.25696	-0.10803	0.019989	-0.086823	-0.19547	-0.031281	0.035095	-0.020599	0.10117	-0.007629	-0.82199	-0.042572	-0.001984	0.006409
48.185	0.014954	-0.0354	0.008698	-0.011902	0.001984	-0.023193	0.11185	-0.005188	-0.01297	-0.35248	-0.042267	0.043793	0.22385	0.037231	0.12329	0.021057	0.033875	-0.062714	-0.24841	-0.19806	0.005798	-0.11292	-0.17242	0.02655	0.005341	-0.02182	0.04837	-0.00946	1.0326	-0.090179	-0.005646	0.004425
48.186	0.010071	-0.089264	-0.071869	-0.036469	0.008392	0.004578	0.12238	0.002747	-0.018005	0.014496	-0.012207	-0.003662	-0.57053	0.2652	0.093994	0.000916	0.040131	-0.014191	-0.09552	-0.059052	-0.027161	-0.16174	-0.020447	0.028534	-0.00412	-0.028381	0.04425	-0.007629	0.90256	-0.097961	-0.001221	0.007629
48.187	0.014191	-0.072784	-0.15884	-0.014954	0.007629	0.000153	0.14755	-0.002289	-0.030518	0.31494	0.016479	0.1506	-0.6279	0.35461	0.059357	-0.005798	0.034943	-0.059509	0.26535	0.071716	-0.10132	-0.1767	0.038147	0.036469	0.007172	-0.025177	-0.003357	-0.006866	0.002899	-0.090942	-0.002899	0.009918
48.188	0.005341	-0.003815	-0.15686	-0.003357	0.006409	0.011292	0.1857	0.010681	-0.054626	0.10483	0.034637	0.22125	-0.37399	0.3241	0.008087	-0.009613	0.010376	-0.028992	0.66742	-0.048676	-0.20599	-0.14984	-0.027008	0.001831	0.019836	-0.029602	0.040436	-0.007324	-0.47913	-0.05661	-0.002441	0.006714
48.189	0.003967	-0.061188	-0.20187	0.01709	0.002136	0.023651	0.17258	0.003052	-0.06134	-0.21576	0.016327	-0.33905	-0.095825	0.001831	-0.010071	0.006409	0.031433	-0.069733	0.67612	-0.066986	-0.11261	-0.28793	0.008392	-0.004578	0.00824	-0.024414	0.049591	-0.009308	0.49393	0.004578	-0.002747	0.002594
48.19	-0.003662	-0.066071	-0.000458	-0.001526	-0.009766	0.022125	0.18219	0.00412	-0.081482	-0.32349	-0.003815	0.014648	-0.00061	-0.093384	-0.022736	0.00885	0.006104	-0.11322	0.2713	0.006104	0.001678	-0.30518	0.1416	0.11627	0.024567	-0.011597	0.045776	-0.012207	0.57312	0.069122	-0.002289	0.002289
48.191	0.006714	-0.050354	0.14206	-0.004578	-0.016632	0.000458	0.14557	0.010529	-0.060883	0.011444	-0.014343	0.031586	0.001984	-0.14893	-0.010834	-0.008087	-0.027618	-0.0737	0.010376	-0.01358	-0.18051	-0.057678	0.13153	0.098724	0.038605	0.018768	0.028076	-0.00824	0.04425	0.058594	-0.003357	-0.000305
48.192	0.015411	-0.063019	0.080719	0.000458	0.001526	-0.029755	0.14191	0.000916	-0.029297	0.21851	0.001221	-0.006104	-0.039673	-0.072327	0.009613	-0.012665	-0.059357	-0.083466	0.041199	0.060425	-0.13825	0.16678	0.065918	0.11444	0.066681	0.053253	0.030823	-0.008087	-0.027466	0.040894	-0.001221	-0.001831
